<svg width="100" height="100" xmlns="http://www.w3.org/2000/svg" version="1.1" xml:space="preserve">
 <g>
  <title>Layer 1</title>
  <polygon points="23.31800079345703,40.71100044250488 50,21.314001083374023 76.68199920654297,40.71100044250488 85.03700256347656,40.71100044250488 50,15.24100124835968 14.963001251220703,40.71100044250488 " id="svg_3"/>
  <rect x="23.809" y="71.087" width="52.383" height="5.333" id="svg_5"/>
  <rect x="16.325" y="79.426" width="67.353" height="5.333" id="svg_6"/>
  <path d="m53.605,52.884c-0.563,-0.397 -1.51,-0.78 -2.833,-1.141l0,8.369c1.816,-0.084 3.066,-0.746 3.754,-1.987c0.358,-0.639 0.541,-1.384 0.541,-2.212c0.001,-1.328 -0.487,-2.334 -1.462,-3.029z" id="svg_8"/>
  <path d="m46.265,42.259c-0.593,0.794 -0.89,1.625 -0.89,2.497c0,1.049 0.35,1.874 1.049,2.467c0.703,0.598 1.646,1.012 2.835,1.24l0,-7.481c-1.399,0.056 -2.399,0.476 -2.994,1.277z" id="svg_9"/>
  <path d="m50,32.725c-10.105,0 -18.296,8.193 -18.296,18.293c0,10.105 8.191,18.299 18.296,18.299c10.105,0 18.297,-8.193 18.297,-18.299c0,-10.102 -8.191,-18.293 -18.297,-18.293zm5.181,28.426c-1.018,0.649 -2.489,1.09 -4.407,1.3l0,3.089l-1.511,0l0,-3.089c-3.089,-0.196 -5.186,-1.291 -6.288,-3.275c-0.605,-1.072 -0.907,-2.519 -0.907,-4.348l2.815,0c0.087,1.455 0.315,2.519 0.691,3.188c0.661,1.2 1.892,1.871 3.688,2.017l0,-8.673c-2.303,-0.438 -4.003,-1.161 -5.104,-2.182c-1.099,-1.021 -1.647,-2.432 -1.647,-4.232c0,-1.609 0.591,-3.064 1.776,-4.355c1.182,-1.302 2.84,-1.958 4.975,-1.981l0,-2.114l1.511,0l0,2.088c2.109,0.145 3.734,0.766 4.863,1.867c1.129,1.098 1.722,2.542 1.774,4.338l-2.785,0c-0.073,-0.807 -0.292,-1.505 -0.65,-2.086c-0.668,-1.072 -1.733,-1.633 -3.2,-1.689l0,7.75c2.464,0.69 4.134,1.339 5.014,1.943c1.428,0.997 2.145,2.471 2.145,4.428c0,2.817 -0.919,4.824 -2.753,6.016z" id="svg_10"/>
 </g>

</svg>